<?xml version="1.0" encoding="UTF-8" standalone="no"?>
<!-- Created with Inkscape (http://www.inkscape.org/) -->

<svg
   xmlns:dc="http://purl.org/dc/elements/1.1/"
   xmlns:cc="http://creativecommons.org/ns#"
   xmlns:rdf="http://www.w3.org/1999/02/22-rdf-syntax-ns#"
   xmlns:svg="http://www.w3.org/2000/svg"
   xmlns="http://www.w3.org/2000/svg"
   xmlns:sodipodi="http://sodipodi.sourceforge.net/DTD/sodipodi-0.dtd"
   xmlns:inkscape="http://www.inkscape.org/namespaces/inkscape"
   width="272mm"
   height="475.39987mm"
   viewBox="0 0 271.99999 475.39987"
   version="1.1"
   id="svg8"
   inkscape:version="0.92.3 (2405546, 2018-03-11)"
   sodipodi:docname="helix-vent-z-outer-wall.svg"
   inkscape:export-filename="/home/hill/Dropbox/write/darkness/yodrew.github.io/img/plan/source/helix-vent-z-outer-wall.png"
   inkscape:export-xdpi="71.998299"
   inkscape:export-ydpi="71.998299">
  <defs
     id="defs2">
    <inkscape:path-effect
       effect="spiro"
       id="path-effect347"
       is_visible="true" />
    <inkscape:path-effect
       is_visible="true"
       id="path-effect4569"
       effect="spiro" />
    <inkscape:path-effect
       effect="spiro"
       id="path-effect3634"
       is_visible="true" />
    <inkscape:path-effect
       is_visible="true"
       id="path-effect286"
       effect="spiro" />
    <inkscape:path-effect
       effect="spiro"
       id="path-effect3626"
       is_visible="true" />
    <inkscape:path-effect
       is_visible="true"
       id="path-effect3638"
       effect="spiro" />
    <inkscape:path-effect
       effect="spiro"
       id="path-effect3650"
       is_visible="true" />
    <inkscape:path-effect
       is_visible="true"
       id="path-effect3654"
       effect="spiro" />
    <inkscape:path-effect
       effect="spiro"
       id="path-effect3658"
       is_visible="true" />
    <inkscape:path-effect
       is_visible="true"
       id="path-effect3662"
       effect="spiro" />
    <inkscape:path-effect
       effect="spiro"
       id="path-effect3666"
       is_visible="true" />
  </defs>
  <sodipodi:namedview
     id="base"
     pagecolor="#dba4a2"
     bordercolor="#666666"
     borderopacity="1.0"
     inkscape:pageopacity="0"
     inkscape:pageshadow="2"
     inkscape:zoom="0.33077715"
     inkscape:cx="127.08358"
     inkscape:cy="929.45098"
     inkscape:document-units="mm"
     inkscape:current-layer="layer1"
     showgrid="false"
     inkscape:window-width="1276"
     inkscape:window-height="749"
     inkscape:window-x="0"
     inkscape:window-y="25"
     inkscape:window-maximized="1"
     units="mm"
     inkscape:showpageshadow="false"
     inkscape:pagecheckerboard="false"
     showborder="false"
     fit-margin-top="0"
     fit-margin-left="0"
     fit-margin-right="0"
     fit-margin-bottom="0">
    <inkscape:grid
       type="xygrid"
       id="grid29"
       originx="-1.1920954e-08"
       originy="-1.1838093e-05" />
  </sodipodi:namedview>
  <metadata
     id="metadata5">
    <rdf:RDF>
      <cc:Work
         rdf:about="">
        <dc:format>image/svg+xml</dc:format>
        <dc:type
           rdf:resource="http://purl.org/dc/dcmitype/StillImage" />
        <dc:title></dc:title>
      </cc:Work>
    </rdf:RDF>
  </metadata>
  <g
     inkscape:label="Layer 1"
     inkscape:groupmode="layer"
     id="layer1"
     transform="translate(194.17622,-34.720972)">
    <text
       transform="rotate(-90)"
       xml:space="preserve"
       style="font-style:normal;font-variant:normal;font-weight:normal;font-stretch:normal;font-size:3.38666677px;line-height:0%;font-family:'Trebuchet MS';-inkscape-font-specification:Sans;letter-spacing:-0.26458332px;word-spacing:-0.5291667px;writing-mode:lr-tb;display:inline;fill:#000000;fill-opacity:1;stroke:none;stroke-width:0.28222224"
       x="-502.62103"
       y="-110.14632"
       id="text10048"><tspan
         sodipodi:role="line"
         id="tspan10050"
         x="-502.62103"
         y="-110.14632"
         style="font-size:5.64444399px;line-height:0.75999999;letter-spacing:-0.26458332px;word-spacing:-0.5291667px;stroke-width:0.28222224">20                                   48                                     20                                                                                                                                                              281</tspan><tspan
         sodipodi:role="line"
         x="-502.62103"
         y="-105.85654"
         id="tspan9855"
         style="font-size:5.64444399px;line-height:75.99999905%;letter-spacing:-0.26458332px;word-spacing:-0.5291667px;fill:#000000;fill-opacity:0.49803922;stroke-width:0.28222224"><tspan
           dx="0 0 0 0 0 0 0 0 0 0 0 0 0 0 0 0 0 0 0 0 0 0 0 0 0 0 0 0 0 0 0 0 0 0 0 0 0 0 0 0 0 0 0 0 0 0 0 0 0 0 0 0 0 0 0 0 0 0 0 0 0 0 0 0 0 0 0 0 0 0 0 0 0 0 0 0 0 0 0 0 0 0 0 0 0 0 0 0 0 0 0 0 0 0 0 0 0 0 0 0 0 0 0 0 0 0 0 0 0 0 0 0 0 0 0 0 0 0 0 0 0 0 0 0 0 0 0 0 0 0 0 0 0 0 0 0 0 0 0 0 0 0 0 0 0 0 0 0 0 0 0 0 0 0 0 0 0 0 0 0 0 0 0 0 0 0 0 0 0 0 0 0 0 0 0 0 0 0 0 0 0 0 0 0 0 0 0 0 0 0 0 0 0 0 0 0 0 0 0 0 0 0 0 0 0 0 0 0 0 0 0 0 0 0 0 0 0 0 0 0 0 0 0 0 0 0 0 0 0 0 0 0 0 0 0 0 0 0 0 0 0 0 0 0 0 0 0 0 0 0 0 0 0 0 0 0 0 0 0 0 0 0 0 0 0 0 0 0 0 0 0 0 0 0 0 0 0 0 0 0 0 0 0 0 0 0 0 0 0 0 0 0 0 0 0 0 0 0 0 0 0 0 0 0 0 0 0 0 0 0 0 0 0 0 0 0 0 0 0 0 0 0 0 0 0 0 0 0 0 0 0 0 0 0 0 0 0 0 0 0 0 0 0 0 0 0 0 0 0 0 0 0 0 0 0 0 0 0 0 0 0 0 0 0 0 0 0 0 0 0 0 0 0 0 0 0 0 0 0 0 0 0 0 0 0 0 0 0 0 0 0 0 0 0 0 0 0 0 0 0 0 0 0 0 0 0 0 0 0 0 0 0 0 0 0 0 0 0 0 0 0 0 0 0 0 0"
           id="tspan5116"
           style="font-size:5.64444399px;line-height:75.99999905%;letter-spacing:-0.26458332px;word-spacing:-0.5291667px;fill:#000000;fill-opacity:0.49803922;stroke-width:0.28222224">          20                                                         68                 88                                                                                                                                                                                                                                                                                                               369             389                                                      437         457 </tspan></tspan></text>
    <path
       id="path10640"
       style="display:inline;fill:none;stroke:#000000;stroke-width:0.39999998;stroke-linecap:butt;stroke-linejoin:miter;stroke-miterlimit:4;stroke-dasharray:none;stroke-opacity:1"
       d="m -117.97614,34.920999 v 96.999961 -20.00003 l -34.00007,3e-5 v 20.00002 l -20.00001,-2e-5 v 280.99999 h 20.00001 l -1e-5,19.99998 34.00008,-2e-5 v -19.99996 96.99988 H 22.023725 l 4.4e-5,-96.99984 3.6e-5,19.99996 H 56.02383 v -321 H 22.023725 v 20.00004 -97.00002 z"
       inkscape:connector-curvature="0"
       sodipodi:nodetypes="ccccccccccccccccccccc" />
    <text
       xml:space="preserve"
       style="font-style:normal;font-variant:normal;font-weight:normal;font-stretch:normal;font-size:3.38666677px;line-height:88.99999857%;font-family:'Trebuchet MS';-inkscape-font-specification:Sans;letter-spacing:0px;word-spacing:0px;writing-mode:lr-tb;display:inline;fill:#000000;fill-opacity:1;stroke:none;stroke-width:0.28222224"
       x="-149.24178"
       y="194.09019"
       id="text7811"><tspan
         sodipodi:role="line"
         x="-149.24178"
         y="194.09019"
         id="tspan7819"
         style="font-style:normal;font-weight:bold;font-size:7.90222168px;line-height:88.99999857%;stroke-width:0.28222224">helix vent z outer wall</tspan><tspan
         sodipodi:role="line"
         x="-149.24178"
         y="201.12317"
         id="tspan5680"
         style="font-style:italic;font-size:7.90222168px;line-height:88.99999857%;stroke-width:0.28222224">228 x 395</tspan><tspan
         sodipodi:role="line"
         x="-149.24178"
         y="208.15614"
         style="font-style:normal;font-size:7.90222168px;line-height:88.99999857%;stroke-width:0.28222224"
         id="tspan6640"><tspan
   id="tspan1639"
   style="font-style:italic;font-size:7.90222168px;line-height:88.99999857%;stroke-width:0.28222224">paper, </tspan>black, acid-free bond</tspan><tspan
         sodipodi:role="line"
         x="-149.24178"
         y="215.18913"
         style="font-style:normal;font-size:7.90222168px;line-height:88.99999857%;stroke-width:0.28222224"
         id="tspan5953">160-300gsm, A2</tspan></text>
    <path
       sodipodi:nodetypes="cc"
       inkscape:connector-curvature="0"
       id="path7069"
       d="M -55.976235,132.92099 V 411.92098"
       style="fill:none;stroke:#000000;stroke-width:0.39999998;stroke-linecap:butt;stroke-linejoin:miter;stroke-miterlimit:4;stroke-dasharray:3.19999973, 0.79999993, 0.39999996, 0.79999993;stroke-dashoffset:0;stroke-opacity:1" />
    <path
       sodipodi:nodetypes="cc"
       inkscape:connector-curvature="0"
       id="path7073"
       d="M 14.023745,132.92099 V 411.92098"
       style="fill:none;stroke:#000000;stroke-width:0.39999998;stroke-linecap:butt;stroke-linejoin:miter;stroke-miterlimit:4;stroke-dasharray:3.19999973, 0.79999993, 0.39999996, 0.79999993;stroke-dashoffset:0;stroke-opacity:1" />
    <path
       style="fill:none;stroke:#000000;stroke-width:0.39999998;stroke-linecap:butt;stroke-linejoin:miter;stroke-miterlimit:4;stroke-dasharray:9.59999927, 9.59999927;stroke-dashoffset:0;stroke-opacity:1"
       d="M 22.023744,132.92099 V 411.92098"
       id="path7110"
       inkscape:connector-curvature="0"
       sodipodi:nodetypes="cc" />
    <path
       inkscape:connector-curvature="0"
       style="fill:none;stroke:#000000;stroke-width:0.39999998;stroke-miterlimit:4;stroke-dasharray:9.59999945, 9.59999945;stroke-dashoffset:0;stroke-opacity:1"
       inkscape:path-effect="#path-effect347"
       inkscape:original-d="M 56.024045,131.92107 H -151.97642 V 412.92108 H 56.024045"
       d="M 56.024045,131.92107 H -151.97642 V 412.92108 H 56.024045"
       id="path3616"
       sodipodi:nodetypes="cccc" />
    <path
       inkscape:connector-curvature="0"
       style="fill:none;stroke:#000000;stroke-width:0.39999998;stroke-miterlimit:4;stroke-dasharray:9.59999945, 9.59999945;stroke-dashoffset:0;stroke-opacity:1"
       inkscape:path-effect="#path-effect4569"
       inkscape:original-d="M -117.97614,409.92115 V 134.92081"
       d="M -117.97614,409.92115 V 134.92081"
       id="path5134"
       sodipodi:nodetypes="cc" />
    <path
       style="opacity:1;fill:none;fill-opacity:0.10588235;stroke:#000000;stroke-width:3;stroke-linecap:round;stroke-miterlimit:4;stroke-dasharray:12.00000033, 6.00000017;stroke-dashoffset:0;stroke-opacity:0.10697674"
       d="m -169.97621,133.92096 h 15.99999 v 276.8 h -15.99999 z"
       id="rect1262"
       inkscape:connector-curvature="0"
       sodipodi:nodetypes="ccccc" />
    <path
       sodipodi:nodetypes="ccccc"
       inkscape:connector-curvature="0"
       id="path1273"
       d="m -149.97621,430.92095 v -16.00002 h 30 v 16.00002 z"
       style="opacity:1;fill:none;fill-opacity:0.10588235;stroke:#000000;stroke-width:3;stroke-linecap:round;stroke-miterlimit:4;stroke-dasharray:12.00000033, 6.00000017;stroke-dashoffset:0;stroke-opacity:0.10697674" />
    <path
       style="opacity:1;fill:none;fill-opacity:0.10588235;stroke:#000000;stroke-width:3;stroke-linecap:round;stroke-miterlimit:4;stroke-dasharray:12.00000033, 6.00000017;stroke-dashoffset:0;stroke-opacity:0.10697674"
       d="m -149.97621,129.92096 v -16.00001 h 30 v 16.00001 z"
       id="path1275"
       inkscape:connector-curvature="0"
       sodipodi:nodetypes="ccccc" />
    <path
       style="opacity:1;fill:none;fill-opacity:0.10588235;stroke:#000000;stroke-width:3;stroke-linecap:round;stroke-miterlimit:4;stroke-dasharray:3.00000004, 6.0000001;stroke-dashoffset:0;stroke-opacity:0.10697674"
       d="m -107.97601,414.82077 v 0.39687 l -0.41806,-0.0966 -7.42332,32.15412 10.71821,2.47478 5.52421,-23.92878 h 33.156633 l 5.524728,23.92878 10.717694,-2.47478 -7.423319,-32.15412 -0.376722,0.0868 v -0.38706 z"
       id="path1603"
       inkscape:connector-curvature="0" />
    <path
       style="opacity:1;fill:none;fill-opacity:0.10588235;stroke:#000000;stroke-width:3;stroke-linecap:round;stroke-miterlimit:4;stroke-dasharray:3.00000004, 6.0000001;stroke-dashoffset:0;stroke-opacity:0.10697674"
       d="m -37.976145,414.92077 v 0.39687 l -0.417544,-0.0966 -7.423322,32.15412 10.717694,2.47478 5.524209,-23.92878 H 3.582041 l 5.524212,23.92878 10.718209,-2.47478 -7.423837,-32.15412 -0.376722,0.0868 v -0.38706 z"
       id="path1605"
       inkscape:connector-curvature="0" />
    <path
       style="opacity:1;fill:none;fill-opacity:0.10588235;stroke:#000000;stroke-width:3;stroke-linecap:round;stroke-miterlimit:4;stroke-dasharray:3.00000004, 6.0000001;stroke-dashoffset:0;stroke-opacity:0.10697674"
       d="m -105.09918,95.220917 -10.71821,2.474785 7.42332,32.154108 0.41806,-0.0966 v 0.16794 h 50.000054 v -0.15813 l 0.376722,0.0868 7.423319,-32.154108 -10.717694,-2.474785 -5.472017,23.699843 H -99.62768 Z"
       id="path1637"
       inkscape:connector-curvature="0" />
    <path
       style="opacity:1;fill:none;fill-opacity:0.10588235;stroke:#000000;stroke-width:3;stroke-linecap:round;stroke-miterlimit:4;stroke-dasharray:3.00000004, 6.0000001;stroke-dashoffset:0;stroke-opacity:0.10697674"
       d="m -35.099317,95.220917 -10.717694,2.474785 7.423322,32.154108 0.417544,-0.0966 v 0.16794 h 50.000048 v -0.15813 l 0.376722,0.0868 L 19.824462,97.695712 9.106253,95.220927 3.634751,118.92077 h -33.262569 z"
       id="path1639"
       inkscape:connector-curvature="0" />
    <text
       xml:space="preserve"
       style="font-style:normal;font-variant:normal;font-weight:normal;font-stretch:normal;font-size:3.38666677px;line-height:0%;font-family:'Trebuchet MS';-inkscape-font-specification:Sans;text-align:start;letter-spacing:-0.26722917px;word-spacing:-0.26458332px;writing-mode:lr-tb;text-anchor:start;display:inline;fill:#000000;fill-opacity:1;stroke:none;stroke-width:3;stroke-miterlimit:4;stroke-dasharray:3.00000008, 6.00000017;stroke-dashoffset:0"
       x="-165.36424"
       y="407.142"
       id="text2155"><tspan
         sodipodi:role="line"
         x="-165.36424"
         y="407.142"
         style="font-size:5.64444447px;line-height:0.89999998;text-align:start;letter-spacing:-0.26722917px;word-spacing:-0.26458332px;text-anchor:start;stroke-width:3;stroke-miterlimit:4;stroke-dasharray:3.00000008, 6.00000017;stroke-dashoffset:0"
         id="tspan3628">                                                                                            A                                                          B   </tspan><tspan
         sodipodi:role="line"
         x="-165.36424"
         y="412.22198"
         style="font-size:5.64444447px;line-height:0.89999998;text-align:start;letter-spacing:-0.26722917px;word-spacing:-0.26458332px;text-anchor:start;stroke-width:3;stroke-miterlimit:4;stroke-dasharray:3.00000008, 6.00000017;stroke-dashoffset:0"
         id="tspan2607">20                   34                                    62                                                     70                             8               34</tspan><tspan
         sodipodi:role="line"
         x="-165.36424"
         y="417.302"
         style="font-size:5.64444447px;line-height:0.89999998;text-align:start;letter-spacing:-0.26722917px;word-spacing:-0.26458332px;text-anchor:start;fill:#000000;fill-opacity:0.49803922;stroke-width:3;stroke-miterlimit:4;stroke-dasharray:3.00000008, 6.00000017;stroke-dashoffset:0"
         id="tspan3632">         20                        54                                               116                                                    186  194                  228</tspan></text>
    <path
       inkscape:connector-curvature="0"
       id="path3624"
       d="M -117.97614,409.92115 V 134.92081"
       inkscape:original-d="M -117.97614,409.92115 V 134.92081"
       inkscape:path-effect="#path-effect3626"
       style="fill:none;stroke:#000000;stroke-width:0.39999998;stroke-miterlimit:4;stroke-dasharray:9.59999945, 9.59999945;stroke-dashoffset:0;stroke-opacity:1"
       sodipodi:nodetypes="cc" />
    <path
       style="opacity:1;fill:none;fill-opacity:0.10588235;stroke:#000000;stroke-width:3;stroke-linecap:round;stroke-miterlimit:4;stroke-dasharray:12.00000033, 6.00000017;stroke-dashoffset:0;stroke-opacity:0.10697674"
       d="m 24.02379,430.92095 v -16.00002 h 30 v 16.00002 z"
       id="path583"
       inkscape:connector-curvature="0"
       sodipodi:nodetypes="ccccc" />
    <path
       sodipodi:nodetypes="ccccc"
       inkscape:connector-curvature="0"
       id="path585"
       d="m 24.02379,129.92096 v -16.00001 h 30 v 16.00001 z"
       style="opacity:1;fill:none;fill-opacity:0.10588235;stroke:#000000;stroke-width:3;stroke-linecap:round;stroke-miterlimit:4;stroke-dasharray:12.00000033, 6.00000017;stroke-dashoffset:0;stroke-opacity:0.10697674" />
    <path
       id="path2633"
       style="opacity:1;vector-effect:none;fill:none;fill-opacity:1;stroke:#000000;stroke-width:3;stroke-linecap:round;stroke-linejoin:miter;stroke-miterlimit:4;stroke-dasharray:3.00000009, 6.00000019;stroke-dashoffset:0;stroke-opacity:0.10588235"
       d="m -82.97622,158.90284 v 226.83619 m -25,25.1818 V 133.92109 l 50,-2.4e-4 v 276.99972 z"
       inkscape:connector-curvature="0"
       sodipodi:nodetypes="ccccccc" />
    <path
       d="M -12.976217,159.08452 V 385.75716 M -37.97622,410.92083 V 133.92104 l 50,-2.4e-4 v 276.99977 z"
       style="opacity:1;vector-effect:none;fill:none;fill-opacity:1;stroke:#000000;stroke-width:3;stroke-linecap:round;stroke-linejoin:miter;stroke-miterlimit:4;stroke-dasharray:3.00000008, 6.00000016;stroke-dashoffset:0;stroke-opacity:0.10588235"
       id="path2636"
       inkscape:connector-curvature="0" />
    <path
       sodipodi:nodetypes="cc"
       inkscape:connector-curvature="0"
       id="path1091"
       d="m -117.97622,489.92085 h 140"
       style="fill:none;stroke:#000000;stroke-width:0.39999995;stroke-linecap:butt;stroke-linejoin:miter;stroke-miterlimit:4;stroke-dasharray:9.59999898, 9.59999898;stroke-dashoffset:0;stroke-opacity:1" />
    <path
       style="fill:none;stroke:#000000;stroke-width:0.39999995;stroke-linecap:butt;stroke-linejoin:miter;stroke-miterlimit:4;stroke-dasharray:9.59999898, 9.59999898;stroke-dashoffset:0;stroke-opacity:1"
       d="m -117.97622,54.920842 h 140"
       id="path1101"
       inkscape:connector-curvature="0"
       sodipodi:nodetypes="cc" />
    <path
       inkscape:connector-curvature="0"
       id="path1115"
       d="m 3.973362,413.59315 -0.160153,-0.0391 -0.400373,0.30467 -0.453101,0.2168 -0.0391,0.16015 -0.132804,0.10156 -0.164053,0.68357 v 1.19919 l 0.556616,1.16599 1.253846,0.30273 1.025356,-0.78513 0.0918,-0.38281 h 1.572202 l 1.16596,-0.55467 0.302727,-1.25583 -0.785126,-1.02536 -0.683561,-0.16407 H 4.123727 Z m 7.985986,0.48241 -0.302727,1.25583 0.783166,1.02536 0.683571,0.16406 h 2.99987 l 1.16596,-0.55467 0.302727,-1.25583 -0.785126,-1.02536 -0.683561,-0.16407 h -2.99987 z m 6.628614,2.46283 -0.164053,0.68162 v 2.99992 l 0.554666,1.16599 1.255806,0.30273 1.023386,-0.78513 0.166013,-0.68359 v -2.99992 l -0.556616,-1.16403 -1.253856,-0.30272 z m -15.800099,4.99987 -0.164053,0.68162 v 2.99993 l 0.556616,1.16599 1.253846,0.30272 1.025356,-0.78513 0.164053,-0.68358 v -2.99993 l -0.554666,-1.16403 -1.255806,-0.30272 z m 15.800099,3.9999 -0.164053,0.68162 v 2.99992 l 0.554666,1.166 1.255806,0.30272 1.023386,-0.78513 0.166013,-0.68359 v -2.99992 l -0.556616,-1.16403 -1.253856,-0.30272 z m -15.800099,4.99987 -0.164053,0.68162 v 2.99993 l 0.556616,1.16599 1.253846,0.30272 1.025356,-0.78513 0.164053,-0.68358 v -2.99993 L 5.069015,430.05562 3.813209,429.7529 Z m 15.800099,3.9999 -0.164053,0.68162 v 2.99993 l 0.554666,1.16599 1.255806,0.30272 1.023386,-0.78513 0.166013,-0.68358 v -2.99993 l -0.556616,-1.16403 -1.253856,-0.30272 z M 2.787863,439.5378 2.62381,440.21943 v 2.99992 l 0.556616,1.16599 1.253846,0.30272 1.025356,-0.78513 0.164053,-0.68358 v -2.99992 L 5.069015,439.0554 3.813209,438.75267 Z m 16.083287,3.78312 h -1.347592 l -1.16597,0.55466 -0.300767,1.25388 0.783166,1.02537 0.683571,0.16601 h 2.400287 1.499935 v -1.49996 -0.60155 l -0.556616,-1.16404 -1.253856,-0.30272 z m -11.513174,0.55466 -0.300767,1.25388 0.783166,1.02537 0.683571,0.16601 h 2.999871 l 1.165959,-0.55663 0.300767,-1.25387 -0.783166,-1.02537 -0.68356,-0.16405 H 8.523946 Z"
       style="color:#000000;font-style:normal;font-variant:normal;font-weight:normal;font-stretch:normal;font-size:medium;line-height:normal;font-family:sans-serif;font-variant-ligatures:normal;font-variant-position:normal;font-variant-caps:normal;font-variant-numeric:normal;font-variant-alternates:normal;font-feature-settings:normal;text-indent:0;text-align:start;text-decoration:none;text-decoration-line:none;text-decoration-style:solid;text-decoration-color:#000000;letter-spacing:normal;word-spacing:normal;text-transform:none;writing-mode:lr-tb;direction:ltr;text-orientation:mixed;dominant-baseline:auto;baseline-shift:baseline;text-anchor:start;white-space:normal;shape-padding:0;clip-rule:nonzero;display:inline;overflow:visible;visibility:visible;opacity:1;isolation:auto;mix-blend-mode:normal;color-interpolation:sRGB;color-interpolation-filters:linearRGB;solid-color:#000000;solid-opacity:1;vector-effect:none;fill:none;fill-opacity:0.10697674;fill-rule:nonzero;stroke:#000000;stroke-width:0.2;stroke-linecap:round;stroke-linejoin:miter;stroke-miterlimit:4;stroke-dasharray:none;stroke-dashoffset:0;stroke-opacity:0.54901961;color-rendering:auto;image-rendering:auto;shape-rendering:auto;text-rendering:auto;enable-background:accumulate" />
    <path
       inkscape:connector-curvature="0"
       id="path1117"
       d="m -116.02701,413.59315 -0.16015,-0.0391 -0.40037,0.30467 -0.4531,0.2168 -0.0391,0.16015 -0.13281,0.10156 -0.16405,0.68357 v 1.19919 l 0.55662,1.16599 1.25384,0.30273 1.02536,-0.78513 0.0918,-0.38281 h 1.57221 l 1.16596,-0.55467 0.30272,-1.25583 -0.78512,-1.02536 -0.68356,-0.16407 h -2.99988 z m 7.98599,0.48241 -0.30273,1.25583 0.78317,1.02536 0.68357,0.16406 h 2.99987 l 1.16596,-0.55467 0.30272,-1.25583 -0.78512,-1.02536 -0.68356,-0.16407 h -2.99987 z m 6.62861,2.46283 -0.16405,0.68162 v 2.99992 l 0.55466,1.16599 1.25581,0.30273 1.02339,-0.78513 0.16601,-0.68359 v -2.99992 l -0.55662,-1.16403 -1.25385,-0.30272 z m -15.8001,4.99987 -0.16405,0.68162 v 2.99993 l 0.55662,1.16599 1.25384,0.30272 1.02536,-0.78513 0.16405,-0.68358 v -2.99993 l -0.55467,-1.16403 -1.2558,-0.30272 z m 15.8001,3.9999 -0.16405,0.68162 v 2.99992 l 0.55466,1.166 1.25581,0.30272 1.02339,-0.78513 0.16601,-0.68359 v -2.99992 l -0.55662,-1.16403 -1.25385,-0.30272 z m -15.8001,4.99987 -0.16405,0.68162 v 2.99993 l 0.55662,1.16599 1.25384,0.30272 1.02536,-0.78513 0.16405,-0.68358 v -2.99993 l -0.55467,-1.16403 -1.2558,-0.30272 z m 15.8001,3.9999 -0.16405,0.68162 v 2.99993 l 0.55466,1.16599 1.25581,0.30272 1.02339,-0.78513 0.16601,-0.68358 v -2.99993 l -0.55662,-1.16403 -1.25385,-0.30272 z m -15.8001,4.99987 -0.16405,0.68163 v 2.99992 l 0.55662,1.16599 1.25384,0.30272 1.02536,-0.78513 0.16405,-0.68358 v -2.99992 l -0.55467,-1.16403 -1.2558,-0.30273 z m 16.08329,3.78312 h -1.34759 l -1.16597,0.55466 -0.30077,1.25388 0.78317,1.02537 0.68357,0.16601 h 2.40028 1.49994 v -1.49996 -0.60155 l -0.55662,-1.16404 -1.25385,-0.30272 z m -11.51317,0.55466 -0.30077,1.25388 0.78316,1.02537 0.68358,0.16601 h 2.99987 l 1.16596,-0.55663 0.30076,-1.25387 -0.78316,-1.02537 -0.68356,-0.16405 h -2.99987 z"
       style="color:#000000;font-style:normal;font-variant:normal;font-weight:normal;font-stretch:normal;font-size:medium;line-height:normal;font-family:sans-serif;font-variant-ligatures:normal;font-variant-position:normal;font-variant-caps:normal;font-variant-numeric:normal;font-variant-alternates:normal;font-feature-settings:normal;text-indent:0;text-align:start;text-decoration:none;text-decoration-line:none;text-decoration-style:solid;text-decoration-color:#000000;letter-spacing:normal;word-spacing:normal;text-transform:none;writing-mode:lr-tb;direction:ltr;text-orientation:mixed;dominant-baseline:auto;baseline-shift:baseline;text-anchor:start;white-space:normal;shape-padding:0;clip-rule:nonzero;display:inline;overflow:visible;visibility:visible;opacity:1;isolation:auto;mix-blend-mode:normal;color-interpolation:sRGB;color-interpolation-filters:linearRGB;solid-color:#000000;solid-opacity:1;vector-effect:none;fill:none;fill-opacity:0.10697674;fill-rule:nonzero;stroke:#000000;stroke-width:0.2;stroke-linecap:round;stroke-linejoin:miter;stroke-miterlimit:4;stroke-dasharray:none;stroke-dashoffset:0;stroke-opacity:0.54901961;color-rendering:auto;image-rendering:auto;shape-rendering:auto;text-rendering:auto;enable-background:accumulate" />
    <path
       style="color:#000000;font-style:normal;font-variant:normal;font-weight:normal;font-stretch:normal;font-size:medium;line-height:normal;font-family:sans-serif;font-variant-ligatures:normal;font-variant-position:normal;font-variant-caps:normal;font-variant-numeric:normal;font-variant-alternates:normal;font-feature-settings:normal;text-indent:0;text-align:start;text-decoration:none;text-decoration-line:none;text-decoration-style:solid;text-decoration-color:#000000;letter-spacing:normal;word-spacing:normal;text-transform:none;writing-mode:lr-tb;direction:ltr;text-orientation:mixed;dominant-baseline:auto;baseline-shift:baseline;text-anchor:start;white-space:normal;shape-padding:0;clip-rule:nonzero;display:inline;overflow:visible;visibility:visible;opacity:1;isolation:auto;mix-blend-mode:normal;color-interpolation:sRGB;color-interpolation-filters:linearRGB;solid-color:#000000;solid-opacity:1;vector-effect:none;fill:none;fill-opacity:0.10697674;fill-rule:nonzero;stroke:#000000;stroke-width:0.20000003;stroke-linecap:round;stroke-linejoin:miter;stroke-miterlimit:4;stroke-dasharray:none;stroke-dashoffset:0;stroke-opacity:0.54901961;color-rendering:auto;image-rendering:auto;shape-rendering:auto;text-rendering:auto;enable-background:accumulate"
       d="m 3.973388,98.59315 -0.160152,-0.0391 -0.400373,0.30467 -0.453101,0.2168 -0.03911,0.16015 -0.132804,0.10156 -0.164053,0.68357 v 1.19919 l 0.556616,1.16599 1.253847,0.30273 1.025356,-0.78513 0.09182,-0.38281 H 7.123636 L 8.289596,100.9661 8.592324,99.71027 7.807197,98.68491 7.123636,98.52084 H 4.123764 Z m 7.985988,0.48241 -0.302727,1.25583 0.783166,1.02536 0.683571,0.16406 h 2.999871 l 1.16596,-0.55467 0.302727,-1.25583 -0.785126,-1.02536 -0.683561,-0.16407 h -2.999871 z m 6.628616,2.46283 -0.164053,0.68162 v 2.99992 l 0.554666,1.16599 1.255806,0.30273 1.023386,-0.78513 0.166013,-0.68359 v -2.99992 l -0.556616,-1.16403 -1.253856,-0.30272 z m -15.800103,4.99987 -0.164053,0.68162 v 2.99993 l 0.556617,1.16599 1.253846,0.30272 1.025356,-0.78513 0.164052,-0.68358 v -2.99993 l -0.554666,-1.16403 -1.255805,-0.30272 z m 15.800103,3.9999 -0.164053,0.68162 v 2.99992 l 0.554666,1.166 1.255806,0.30272 1.023386,-0.78513 0.166013,-0.68359 v -2.99992 l -0.556616,-1.16403 -1.253856,-0.30272 z m -15.800103,4.99987 -0.164053,0.68162 v 2.99993 l 0.556617,1.16599 1.253846,0.30272 1.025356,-0.78513 0.164052,-0.68358 v -2.99993 L 5.069041,115.05562 3.813236,114.7529 Z m 15.800103,3.9999 -0.164053,0.68162 v 2.99993 l 0.554666,1.16599 1.255806,0.30272 1.023386,-0.78513 0.166013,-0.68358 v -2.99993 l -0.556616,-1.16403 -1.253856,-0.30272 z m -15.800103,4.99987 -0.164053,0.68163 v 2.99992 l 0.556617,1.16599 1.253846,0.30272 1.025356,-0.78513 0.164052,-0.68358 v -2.99992 L 5.069041,124.0554 3.813236,123.75267 Z m 16.08329,3.78312 h -1.347592 l -1.16597,0.55466 -0.300767,1.25388 0.783167,1.02537 0.68357,0.16601 h 2.400287 1.499936 v -1.49996 -0.60155 l -0.556616,-1.16404 -1.253856,-0.30272 z m -11.513176,0.55466 -0.300767,1.25388 0.783166,1.02537 0.683571,0.16601 h 2.999872 l 1.16596,-0.55663 0.300767,-1.25387 -0.783167,-1.02537 -0.68356,-0.16405 H 8.523973 Z"
       id="path1121"
       inkscape:connector-curvature="0" />
    <path
       style="color:#000000;font-style:normal;font-variant:normal;font-weight:normal;font-stretch:normal;font-size:medium;line-height:normal;font-family:sans-serif;font-variant-ligatures:normal;font-variant-position:normal;font-variant-caps:normal;font-variant-numeric:normal;font-variant-alternates:normal;font-feature-settings:normal;text-indent:0;text-align:start;text-decoration:none;text-decoration-line:none;text-decoration-style:solid;text-decoration-color:#000000;letter-spacing:normal;word-spacing:normal;text-transform:none;writing-mode:lr-tb;direction:ltr;text-orientation:mixed;dominant-baseline:auto;baseline-shift:baseline;text-anchor:start;white-space:normal;shape-padding:0;clip-rule:nonzero;display:inline;overflow:visible;visibility:visible;opacity:1;isolation:auto;mix-blend-mode:normal;color-interpolation:sRGB;color-interpolation-filters:linearRGB;solid-color:#000000;solid-opacity:1;vector-effect:none;fill:none;fill-opacity:0.10697674;fill-rule:nonzero;stroke:#000000;stroke-width:0.20000003;stroke-linecap:round;stroke-linejoin:miter;stroke-miterlimit:4;stroke-dasharray:none;stroke-dashoffset:0;stroke-opacity:0.54901961;color-rendering:auto;image-rendering:auto;shape-rendering:auto;text-rendering:auto;enable-background:accumulate"
       d="m -116.027,98.59315 -0.16015,-0.0391 -0.40038,0.30467 -0.45309,0.2168 -0.039,0.16015 -0.13281,0.10156 -0.16405,0.68357 v 1.19919 l 0.55662,1.16599 1.25385,0.30273 1.02535,-0.78513 0.092,-0.38281 h 1.57223 l 1.16596,-0.55467 0.30271,-1.25583 -0.78511,-1.02536 -0.68356,-0.16407 h -2.99988 z m 7.98598,0.48241 -0.30273,1.25583 0.78317,1.02536 0.68358,0.16406 h 2.99986 l 1.16596,-0.55467 0.30272,-1.25583 -0.78512,-1.02536 -0.68356,-0.16407 h -2.99986 z m 6.62862,2.46283 -0.16405,0.68162 v 2.99992 l 0.55466,1.16599 1.25581,0.30273 1.02339,-0.78513 0.16601,-0.68359 v -2.99992 l -0.55662,-1.16403 -1.25385,-0.30272 z m -15.80011,4.99987 -0.16405,0.68162 v 2.99993 l 0.55662,1.16599 1.25385,0.30272 1.02535,-0.78513 0.16405,-0.68358 v -2.99993 l -0.55467,-1.16403 -1.25579,-0.30272 z m 15.80011,3.9999 -0.16405,0.68162 v 2.99992 l 0.55466,1.166 1.25581,0.30272 1.02339,-0.78513 0.16601,-0.68359 v -2.99992 l -0.55662,-1.16403 -1.25385,-0.30272 z m -15.80011,4.99987 -0.16405,0.68162 v 2.99993 l 0.55662,1.16599 1.25385,0.30272 1.02535,-0.78513 0.16405,-0.68358 v -2.99993 l -0.55467,-1.16403 -1.25579,-0.30272 z m 15.80011,3.9999 -0.16405,0.68162 v 2.99993 l 0.55466,1.16599 1.25581,0.30272 1.02339,-0.78513 0.16601,-0.68358 v -2.99993 l -0.55662,-1.16403 -1.25385,-0.30272 z m -15.80011,4.99987 -0.16405,0.68163 v 2.99992 l 0.55662,1.16599 1.25385,0.30272 1.02535,-0.78513 0.16405,-0.68358 v -2.99992 l -0.55467,-1.16403 -1.25579,-0.30273 z m 16.0833,3.78312 h -1.34759 l -1.16597,0.55466 -0.30078,1.25388 0.78318,1.02537 0.68357,0.16601 h 2.40027 1.49995 v -1.49996 -0.60155 l -0.55662,-1.16404 -1.25385,-0.30272 z m -11.51317,0.55466 -0.30078,1.25388 0.78316,1.02537 0.68359,0.16601 h 2.99987 l 1.16596,-0.55663 0.30075,-1.25387 -0.78315,-1.02537 -0.68356,-0.16405 h -2.99987 z"
       id="path1123"
       inkscape:connector-curvature="0" />
  </g>
</svg>
